<?xml version="1.0" encoding="UTF-8"?>
<svg id="Layer_4" xmlns="http://www.w3.org/2000/svg" viewBox="0 0 199.97 199.97">
  <defs>
    <style>
      .cls-1 {
        fill: #37221c;
      }
    </style>
  </defs>
  <polygon class="cls-1" points="151.31 89.62 145.01 82.8 139.14 76.41 133.61 69.75 128.63 62.62 123.81 55.37 118.03 48.9 112.27 42.4 106.61 35.06 101.04 42.46 95.44 49.08 90.11 55.91 84.55 62.56 78.4 68.71 72.94 75.45 68.44 82.98 62.6 89.37 70.73 88.86 78.89 90.16 86.83 89.97 87.72 98.88 86.51 108.35 86.01 117.81 85.23 127.36 82.01 136.38 77.22 144.62 70.7 151.42 64.14 158.29 64.95 161.71 73.7 160.31 81.95 157.08 90.43 154.77 98.48 151.02 104.67 144.64 110.32 138.06 115.82 131.31 119.14 123.24 122.78 115.31 124.82 106.79 126.31 98.15 126.7 89.2 134.73 90.12 142.69 89.15 151.31 89.62"/>
</svg>