<?xml version="1.0" encoding="UTF-8"?>
<svg id="Layer_4" xmlns="http://www.w3.org/2000/svg" viewBox="0 0 199.97 199.97">
  <defs>
    <style>
      .cls-1 {
        fill: #cfab6a;
      }
    </style>
  </defs>
  <polygon class="cls-1" points="77.13 152.84 74.82 150.22 76.2 146.99 76.65 142.75 72.95 142.36 69.56 142.78 67.57 139.98 63.5 136.44 59.32 133 57.21 130.39 57.12 128.96 55.6 128.83 48.28 131.74 45.94 123.46 43.15 115.57 41.08 107.45 38.65 99.45 36.53 91.35 34.03 83.36 31.63 75.48 33.07 71.3 41.09 68.66 49.16 66.44 57.31 64.2 57.05 56.43 47.53 59.4 37.78 62.4 28.19 65.59 22.5 74.76 25.43 83.53 27.89 92.33 30.9 100.96 33.74 109.64 36.7 118.28 39.57 126.96 42.09 135.75 44.14 144.67 47.67 153.15 49.88 162.06 59.5 167.5 66.94 165.11 74.16 162.45 81.66 160.27 77.87 154 77.13 152.84"/>
  <polygon class="cls-1" points="80.46 96.88 73.26 97.02 72.45 87.82 73.25 78.31 72.81 68.8 72.35 59.29 72.55 51.33 72.73 38.76 75.89 35.45 84.83 36.07 93.73 35.5 102.64 35.92 111.54 36.01 120.44 35.09 129.35 35.49 130.12 35.82 132.15 38.74 132.43 50.13 139.82 51.44 140.56 43.66 139.88 35.58 132.47 27.99 123.96 28.19 115.44 28.24 106.91 28.14 98.37 27.54 89.85 28.16 81.31 27.91 72.88 28.41 65.63 35.74 65.49 44.65 65.3 53.68 65.51 61.64 64.72 70.87 65.22 80.08 64.96 89.31 64.77 98.53 65.67 107.76 65.63 116.98 65.56 126.21 65.38 126.94 72.93 134.6 78.69 134.56 79.77 127.74 81.47 121.04 83.14 113.08 85.34 105.23 87.15 97.32 80.46 96.88"/>
  <path class="cls-1" d="M171.44,66.81l-7.76-1.89-7.85-1.18-7.59-2.33-4.18-.12-3.91-1.28-7.7-1.36-9.68-2.47-9.71-2.52-8.71,6.16-2.1,6.5-1.8,6.7-1.6,7.44-1.77,7.4-2.01,9.36-2.3,10.57-2.59,10.5-1.79,8.11-1.21,8.24-.9,4.01-1.59,3.84-.79,6.2,5.33,9.21.12.35,8.44,1.36,8.23,2.26,8.32,1.86,8.38,1.63,8.36,1.71,8.24,2.25,8.36,1.71,8.8-5.87,2.73-8.66,2.02-8.91,1.56-9.01,2.18-8.87,2.03-8.9,1.63-9,1.92-8.94,2.57-8.79,2.12-8.89,1.88-8.97-5.7-9.38ZM141.02,137.13l.21-.21-4.73-.47-7.59-2.33-.2.79-9.49-2.56-10.03-1.94,1.54-6.24,6.4,1.75,10.02,1.62,9.74,2.86,4.55,1.32.78-.2-1.37,5.59.17.06ZM155.76,134.43l-6.87-1.67,1-6.39-1.55-.83-4.18-.12-3.91-1.28-8.53-1.54-8.39-2.17-8.38-2.23-8.13-1.28-1.78,6.07-6.98-1.82,1.3-5.31,1.59-6.63,1.4-6.68,1.09-5.23,2.39-9.57,1.72-7.77,1.13-7.91,1.78-7.84,4.03-1.82,9.08,1.45,8.95,2.46,7.56,1.94,4.13.38,3.91,1.27v-.02s9.25,1.83,9.25,1.83l9.24,1.91.21.92,2.13,3.04-1.54,8.23-2.59,7.99-1.85,8.16-1.39,8.26-2.01,8.12-1.86,8.16-1.93,7.93Z"/>
</svg>