<?xml version="1.0" encoding="UTF-8"?>
<svg id="Layer_4" xmlns="http://www.w3.org/2000/svg" viewBox="0 0 199.97 199.97">
  <defs>
    <style>
      .cls-1 {
        fill: #37221c;
      }
    </style>
  </defs>
  <g>
    <path class="cls-1" d="M111.39,70.19l9.4-7.15-2.61-7.13-2.98-6.22-11.8.93-7.95-7.78-2.21-11.18-6.57-.93-7.41-2.63-4.57,11.45-10.47,2.35-10.8-2.53-5.36,3.9-3.59,6.04,5.45,10.03-1,10.74-9.16,7.16,2.65,6.24,1.77,6.96,11.87-1.03,8.47,7.28.64,12.16,7.63.56,7.22,1.89,4.57-11.38,10.77-3.07,10.77,3.71,5-4.37,4.4-5.79-7.45-9.67,3.32-10.56ZM79.76,83.97l-6.99-1.96-5.31-5.01-2.7-7.1,1.63-7.72,6.11-4.85,7.26-2.75,7.67,2.04,4.25,6.4,3.2,6.88-3.31,6.82-4.01,6.68-7.8.57Z"/>
    <path class="cls-1" d="M111.39,70.19l9.4-7.15-2.61-7.13-2.98-6.22-11.8.93-7.95-7.78-2.21-11.18-6.57-.93-7.41-2.63-4.57,11.45-10.47,2.35-10.8-2.53-5.36,3.9-3.59,6.04,5.45,10.03-1,10.74-9.16,7.16,2.65,6.24,1.77,6.96,11.87-1.03,8.47,7.28.64,12.16,7.63.56,7.22,1.89,4.57-11.38,10.77-3.07,10.77,3.71,5-4.37,4.4-5.79-7.45-9.67,3.32-10.56ZM79.76,83.97l-6.99-1.96-5.31-5.01-2.7-7.1,1.63-7.72,6.11-4.85,7.26-2.75,7.67,2.04,4.25,6.4,3.2,6.88-3.31,6.82-4.01,6.68-7.8.57Z"/>
  </g>
  <g>
    <path class="cls-1" d="M153.81,136.44l8.93-7.36-1.89-6.92-2.78-7-11.76.5-7.67-6.86-1.71-11.61-7.64-.81-6.45-.47-5.86,9.75-10.31,3.86-10.81-4.78-4.52,5.52-3.87,5.33,5.71,9.93-2.23,10.6-9.27,7.17,1.81,7.05,3.02,6.86,12.14-1.71,8.43,7.52,1.18,11.79,7.14.4,6.3,1.32,6.03-9.56,10.1-2.93,10.84,3.48,4.92-5.02,4.44-5.76-5.73-10.01,1.53-10.28ZM122.26,150.38l-7.3-1.53-4.84-5.64-1.92-7.01,1.87-7.04,5.33-4.85,6.86-1.99,7.32,1.2,6.19,4.88,1.31,7.8-1.89,7.46-5.61,5.2-7.31,1.51Z"/>
    <path class="cls-1" d="M153.81,136.44l8.93-7.36-1.89-6.92-2.78-7-11.76.5-7.67-6.86-1.71-11.61-7.64-.81-6.45-.47-5.86,9.75-10.31,3.86-10.81-4.78-4.52,5.52-3.87,5.33,5.71,9.93-2.23,10.6-9.27,7.17,1.81,7.05,3.02,6.86,12.14-1.71,8.43,7.52,1.18,11.79,7.14.4,6.3,1.32,6.03-9.56,10.1-2.93,10.84,3.48,4.92-5.02,4.44-5.76-5.73-10.01,1.53-10.28ZM122.26,150.38l-7.3-1.53-4.84-5.64-1.92-7.01,1.87-7.04,5.33-4.85,6.86-1.99,7.32,1.2,6.19,4.88,1.31,7.8-1.89,7.46-5.61,5.2-7.31,1.51Z"/>
  </g>
</svg>