<?xml version="1.0" encoding="UTF-8"?>
<svg id="Layer_4" xmlns="http://www.w3.org/2000/svg" viewBox="0 0 199.97 199.97">
  <defs>
    <style>
      .cls-1 {
        fill: #37221c;
      }
    </style>
  </defs>
  <polygon class="cls-1" points="120.11 143.56 109.84 149.33 103.28 147.02 99.99 145.5 96.98 147.46 90.13 149.07 79.74 143.64 77.79 140.37 74.58 141.15 73.8 149.37 74.51 157.73 73.8 166.1 74.32 174.18 82.95 170.25 91.37 165.4 99.99 160.44 108.76 165.09 117.24 169.85 125.83 174.56 126 166.1 125.83 157.74 126.26 149.38 125.69 141.05 122.15 140.3 120.11 143.56"/>
  <path class="cls-1" d="M151.61,91.86l-2.65-3.11-.74-6.72,2.3-3.42-2.82-7.88-3.74-1.68-2.97-5.88-.26-4.12-5.18-6.48-4.08-.12-4.88-3.7-2.23-3.53-5.08-3.72-2.03.4-3.99,1.03-2.03.22-4.25-1.28-2.71-3.07-4.28-1.56-4.36,1.49-2.36,3.42-4.52,1.32-2.29.11-3.53-2.23-2.24-.45-5.62,4.12-1.19,3.93-5.38,3.44-4.04.98-5.88,5.73.66,4.07-3.47,5.44-3.55,2.02-2.69,7.95,1.88,3.64-.67,6.32-2.2,3.47.49,8.13,3.43,2.26,2.05,6.42-1.5,3.83,4.38,7.25,4.07.63,4.1,5.26.37,4.08,6.17,4.61.92.21,1.21.1,2.85-.62.92-.44,4.58,3.2,2.44,3.29,5.11,2.72,3.11-1.24,3.8-1.67,2.96-1.45,3.42.73,3.35,2.36,3.09.78,4.9-2.37,2.39-3.32,4.84-2.73.87.4,2.99-.18,1.15.18.89.26,5.58-4.92.6-4.04,4.59-4.67,3.84-1.47,3.83-6.78-.58-4.08,2.24-5.74,3.03-2.75.59-8.38ZM131.96,82.94l-7.76,5.76-7.79,5.71-1.32,2.75,3.31,9.08,3.17,9.13-4.35,2.99-8.1-5.29-7.4-6.25-3.42.07-7.9,5.56-7.33,6.35-4.55-3.39,2.97-9.2,3.43-9.04-.95-3.33-8.1-5.29-7.67-5.89,1.46-4.72,9.66.32,9.66-.74,2.57-1.31,2.48-9.35,3.77-8.94h4.33s3.23,9.12,3.23,9.12l3.26,9.1,2.35,2.16,9.66-.77,9.66.75,1.66,4.66Z"/>
</svg>