<?xml version="1.0" encoding="UTF-8"?>
<svg id="Layer_4" xmlns="http://www.w3.org/2000/svg" viewBox="0 0 199.97 199.97">
  <defs>
    <style>
      .cls-1 {
        fill: #cfab6a;
      }
    </style>
  </defs>
  <polygon class="cls-1" points="119.86 143.41 109.84 149.3 102.97 147.5 99.99 145.13 97.04 147.55 90.13 149.6 79.73 143.65 77.84 140.27 74.65 141.18 74.24 149.37 73.95 157.73 73.92 166.1 74.24 174.35 82.95 170.26 91.32 165.28 99.99 160.92 108.81 165.01 117.21 169.9 125.99 174.92 125.78 166.1 125.63 157.74 126.14 149.38 126.18 140.85 122.27 140.58 119.86 143.41"/>
  <path class="cls-1" d="M152.07,91.49l-2.89-2.92-.78-6.45,1.92-3.62-2.51-7.96-3.85-1.46-2.86-5.91.36-4.08-5.93-5.84-4.04-.92-5.17-3.47-1.96-3.64-5.06-3.8-2.07.36-3.83,1.44-2.15.02-3.99-1.65-2.87-2.91-4.38-1.48-4.05,1.82-3.17,2.61-4.02,1.8-2.15-.23-3.69-1.81h-2.22s-5.12,3.8-5.12,3.8l-1.86,3.68-5.2,3.74-4.05.7-5.84,5.77.29,4.09-3.1,5.49-3.38,2.36-2.5,7.35,1.27,3.95-.65,6.05-2.21,3.46.85,8.11,3.29,2.43,1.94,6.41-1.54,3.82,4.54,7.13,3.98.94,4.22,5.08.24,4.1,6.23,4.42.86-.03,1.31.71,2.86-.57.88-.46,4.72,2.89,2.55,3.22,4.86,2.55,3.18-.79,3.46-2.18,3.21-1.32,3.43.96,3.03,2.85,3.39,1.12,5.11-3.04,2.28-3.4,4.73-2.44.9-.11,2.92.25,1.19-.04.9.45,5.93-5.11.09-4.12,4.85-4.28,3.94-1.09,4.11-7.64-1.36-3.87,2.33-6.08,3.08-2.69,1.2-8.55ZM131.61,82.47l-7.58,6-7.74,5.78-.98,2.84,2.89,9.22,3.41,9.05-4.33,2.93-7.73-5.8-8.23-5.11-3.08-.58-7.65,5.9-7.5,6.11-4.5-3.39,3.01-9.18,3.01-9.18-.7-3.14-7.81-5.68-7.79-5.71,1.37-4.59,9.66-.13,9.66.4,2.59-2.01,2.83-9.24,3.34-9.08,4.88-.13,3.25,9.1,2.57,9.32,2.53,1.86,9.66-.49,9.66.67,1.31,4.22Z"/>
</svg>