<?xml version="1.0" encoding="UTF-8"?>
<svg id="Layer_4" xmlns="http://www.w3.org/2000/svg" viewBox="0 0 199.97 199.97">
  <defs>
    <style>
      .cls-1 {
        fill: #cfab6a;
      }
    </style>
  </defs>
  <polygon class="cls-1" points="150.22 93.44 145.31 86.78 139.42 80.41 133.82 73.79 128.23 67.17 122.89 60.35 117.68 53.41 112.05 46.81 106.61 40.58 101.8 47.31 96.21 53.93 89.77 59.85 84.93 67.09 78.89 73.33 73.89 80.45 68.65 87.37 61.87 93.88 70.73 93.9 78.89 93.01 87.12 93.42 87.01 103.1 87.54 112.62 86.35 122.08 84.4 131.38 81.77 140.51 77.68 149.14 71.88 156.82 63.48 161.51 64.89 165.1 73.67 164.37 81.89 161.11 90.18 158.43 97.65 153.97 104.31 148.46 110.6 142.5 115.6 135.4 119.16 127.47 122.98 119.59 124.23 110.9 125.69 102.31 127.06 94.38 134.73 94.06 142.68 92.67 150.22 93.44"/>
</svg>