<?xml version="1.0" encoding="UTF-8"?>
<svg id="Layer_4" xmlns="http://www.w3.org/2000/svg" viewBox="0 0 199.97 199.97">
  <defs>
    <style>
      .cls-1 {
        fill: #37221c;
      }
    </style>
  </defs>
  <polygon class="cls-1" points="76.75 153.08 75.48 150.1 76.09 146.96 76.89 142.59 72.95 142.63 69.73 142.38 67.54 140.01 63.69 136.25 59.81 132.51 57.08 130.46 57.25 128.78 55.74 129.3 48.25 131.79 46.09 123.41 43.97 115.31 41.04 107.46 38.42 99.52 36.21 91.45 34.06 83.35 31.16 75.49 33.13 71.4 41.28 69.29 49.18 66.48 57.1 64.04 57.35 55.85 47.61 59.65 37.58 61.77 28.02 65.29 23.36 74.71 25.79 83.41 28.75 92.06 31.15 100.88 33.96 109.57 36.76 118.26 39.58 126.95 42.06 135.75 44.7 144.5 47.34 153.25 50.11 161.92 59.49 167 66.88 164.94 74.28 162.83 81.24 160.1 77.62 154.15 76.75 153.08"/>
  <polygon class="cls-1" points="80.46 97.65 73.03 97.2 73.07 87.82 72.95 78.31 72.86 68.8 73.22 59.29 73.05 51.33 72.31 38.68 75.92 35.55 84.83 35.39 93.73 35.52 102.64 35.89 111.54 35.99 120.44 35.66 129.32 36.02 130.03 35.91 132.59 38.66 132.65 50 139.88 51.51 140.13 43.66 140.24 35.48 132.49 27.92 123.96 28.42 115.44 28.37 106.91 27.97 98.38 28.24 89.85 27.65 81.31 28.35 72.81 28.12 65.22 35.64 65.66 44.65 65.19 53.68 65.58 61.64 65.53 70.86 65.46 80.08 65.27 89.31 64.81 98.53 65.03 107.76 65.19 116.99 65.69 126.21 65.01 127.23 72.9 134.7 78.47 134.32 80.51 127.91 82.07 121.18 83.19 113.09 85.17 105.19 87.11 97.34 80.46 97.65"/>
  <path class="cls-1" d="M171.12,67.42l-7.6-1.82-7.63-2.16-7.68-1.91-4.04-.72-4.07-.61-7.6-1.78-9.8-1.94-9.64-2.27-8.72,5.61-1.6,6.61-1.97,6.66-1.78,7.4-1.55,7.45-1.89,9.38-2.62,10.5-1.95,10.65-2.57,7.93-1.3,8.22-1.14,3.96-1.08,3.95-1.12,6.17,5.45,9.2.19.09,8.26,2.13,8.44,1.35,8.25,2.19,8.39,1.59,8.2,2.41,8.44,1.36,8.29,2.15,9.08-5.87,2.51-8.79,1.33-9.07,1.8-8.96,2.58-8.78,2.19-8.87,1.79-8.96,2.29-8.85,1.47-9.03,2.57-8.79,1.27-8.97-5.45-8.79ZM141.5,137.61l-.43-.03-4.51-1.45-7.69-1.91-.06.19-9.65-1.89-9.82-2.3,1.22-6.32,6.67,1.47,9.9,2.16,9.85,2.37,4.51,1.48.86.12-1.16,5.69.3.44ZM156.15,134.99l-7.82-1.83,1.87-6.8-1.89-.7-4.04-.72-4.07-.61-8.44-1.96-8.51-1.65-8.44-1.98-8.02-1.82-1.54,6.51-7.47-2.04,1.4-5.55,1.38-6.68,1.28-6.7,1.41-5.16,1.75-9.72,2.5-7.6,1.22-7.89,1.99-7.7,3.74-2.17,9.05,1.78,8.98,2.34,7.62,1.67,3.96,1.15,4.11.36-.07.31,9.26,1.78,9.05,2.6.63.17,1.73,3.21-1.7,8.16-2.34,8.04-1.16,8.31-1.63,8.21-2.41,8.03-2.02,8.13-1.38,8.52Z"/>
</svg>