<?xml version="1.0" encoding="UTF-8"?>
<svg id="Layer_4" xmlns="http://www.w3.org/2000/svg" viewBox="0 0 199.97 199.97">
  <defs>
    <style>
      .cls-1 {
        fill: #cfab6a;
      }
    </style>
  </defs>
  <g>
    <path class="cls-1" d="M110.71,69.77l9.71-6.9-1.91-7.08-3.32-6.1-11.67.53-7.58-7.63-1.59-11.66-7.54-1.06-7.21-1.26-5.3,10.55-10.13,3.53-10.83-4.16-4.76,5.23-3.6,5.51,6.1,9.84-2.26,10.95-9.77,6.87,2.41,6.92,2.49,7.11,11.86-.83,7.77,7.09,2.45,11.08,6.72,1.34,6.82,1.12,5.19-10.59,10.57-3.15,10.8,3.98,3.9-5.66,4.44-4.78-4.55-10.18.78-10.6ZM79.76,84.77l-7.2-2.41-4.79-5.55-3-6.92,2-7.5,6.01-4.58,6.97-1.89,7.22,1.47,5.23,5.31,2.12,7.19-2.09,7.2-5.11,5.55-7.36,2.12Z"/>
    <path class="cls-1" d="M110.71,69.77l9.71-6.9-1.91-7.08-3.32-6.1-11.67.53-7.58-7.63-1.59-11.66-7.54-1.06-7.21-1.26-5.3,10.55-10.13,3.53-10.83-4.16-4.76,5.23-3.6,5.51,6.1,9.84-2.26,10.95-9.77,6.87,2.41,6.92,2.49,7.11,11.86-.83,7.77,7.09,2.45,11.08,6.72,1.34,6.82,1.12,5.19-10.59,10.57-3.15,10.8,3.98,3.9-5.66,4.44-4.78-4.55-10.18.78-10.6ZM79.76,84.77l-7.2-2.41-4.79-5.55-3-6.92,2-7.5,6.01-4.58,6.97-1.89,7.22,1.47,5.23,5.31,2.12,7.19-2.09,7.2-5.11,5.55-7.36,2.12Z"/>
  </g>
  <g>
    <path class="cls-1" d="M152.68,135.73l10.13-6.62-1.62-7.07-3.44-6.16-11.73.67-9.02-6.89-1.46-11.54-6.37-1.05-7.43-2.67-4.22,11.85-10.86,3.6-10.81-5.25-3.83,6.23-6.1,4.92,7.8,9.64-2.39,10.96-8.81,7.34,1.92,6.29,2.6,5.97,11.33.36,7.62,7.26,2.45,11.1,6.7,1.96,6.61-.03,6.19-9.4,9.94-4.76,10.83,5.79,3.82-6.62,5.08-4.82-5.5-10.04.57-11ZM122.26,151.72l-7.27-2.93-4.57-5.75-3.03-6.83,1.85-7.51,5.22-5.99,7.79-2.06,7.67,2.28,4.22,6.42,3.72,6.86-2.4,7.63-5.97,4.92-7.24,2.97Z"/>
    <path class="cls-1" d="M152.68,135.73l10.13-6.62-1.62-7.07-3.44-6.16-11.73.67-9.02-6.89-1.46-11.54-6.37-1.05-7.43-2.67-4.22,11.85-10.86,3.6-10.81-5.25-3.83,6.23-6.1,4.92,7.8,9.64-2.39,10.96-8.81,7.34,1.92,6.29,2.6,5.97,11.33.36,7.62,7.26,2.45,11.1,6.7,1.96,6.61-.03,6.19-9.4,9.94-4.76,10.83,5.79,3.82-6.62,5.08-4.82-5.5-10.04.57-11ZM122.26,151.72l-7.27-2.93-4.57-5.75-3.03-6.83,1.85-7.51,5.22-5.99,7.79-2.06,7.67,2.28,4.22,6.42,3.72,6.86-2.4,7.63-5.97,4.92-7.24,2.97Z"/>
  </g>
</svg>