<?xml version="1.0" encoding="UTF-8"?>
<svg id="Layer_4" xmlns="http://www.w3.org/2000/svg" viewBox="0 0 199.97 199.97">
  <defs>
    <style>
      .cls-1 {
        fill: #37221c;
      }
    </style>
  </defs>
  <g>
    <g>
      <polygon class="cls-1" points="106.38 138.25 113.25 138.37 119.84 138.27 126.43 138.14 133.03 137.69 139.31 137.76 139.38 129.95 139.25 121.87 139.34 114.03 133.03 113.85 126.45 113.56 119.86 114.05 113.26 113.47 106.47 113.64 106.35 121.87 106.58 129.94 106.38 138.25"/>
      <polygon class="cls-1" points="106.38 138.25 113.25 138.37 119.84 138.27 126.43 138.14 133.03 137.69 139.31 137.76 139.38 129.95 139.25 121.87 139.34 114.03 133.03 113.85 126.45 113.56 119.86 114.05 113.26 113.47 106.47 113.64 106.35 121.87 106.58 129.94 106.38 138.25"/>
    </g>
    <g>
      <path class="cls-1" d="M26.05,36.13l.6,7.1-.13,6.8-.1,6.79-.05,6.8.07,6.81-.18,6.81,1.18,7.37,3.45,6.59,5.25,5.39-.56,7.47.27,7.43.56,7.43v7.43s.05,7.44.05,7.44l-.39,7.44.4,7.44-.44,7.44-.04,7.43,7.1-.2,7.11.39,7.11-.22,7.11-.39,7.11.86,7.11.06,7.11-.44,7.11.43,7.11-.25,7.11-.14,7.11-.37,7.11.56,7.11.02,7.11-.1,7.11.22,7.12-.31,7.12.05h7.29s-.46-7.6-.46-7.6l.27-7.43-.41-7.43.31-7.43.07-7.44-.15-7.44-.08-7.44.16-7.44-.33-7.54,5.64-5.24,3.65-6.56,1.06-7.46-.47-6.8.53-6.8-.46-6.79.31-6.8.33-6.81-.19-7.13-7.66.36-7.36-.12-7.36-.39h-7.36s-7.36.29-7.36.29l-7.36.58-7.37-.21-7.36.21-7.36-.81-7.37-.08-7.37.12-7.36.39-7.36-.12-7.36-.22-7.37.08-7.37-.15-7.37.19-7.37-.02-7.36-.25-7.66.17ZM165.37,77.24l-1.08,7.58-4.09,5.01-4.02,2.45-6.84,1.44-7.61-1.78-5.76-5.25-2.89-7.2-.19-2.37v2.4s-3.34,6.99-3.34,6.99l-5.61,5.23-7.51,2.39-6.47-1.27-5.5-3.65-4.41-9.7-.07-2.77-.1,2.77-2.9,7.24-5.78,5.29-7.66,1.47-7.58-1.62-6.2-4.9-2.08-7.55-.59-1.71-.21,1.76-3.2,6.97-5.58,5.19-7.46,1.95-6.92-1.13-3.63-3-.86-.82-3.08-4.07-1.54-7.35-.31-6.59.05-6.58.07-6.59-.53-6.59.28-6.61,7.32-.41,7.31.31,7.31.07,7.31-.15,7.31-.08,7.31.16,7.31-.34,7.31.47,7.31.34,7.31-.1,7.31-.47,7.31.53,7.31-.46,7.31.31,7.31.33,7.31-.05,7.32-.48,7.26.1-.42,6.52v6.58s.29,6.59.29,6.59l.58,6.6-.82,6.58ZM155.86,155.37l-7.29.62-7.58-.13-7.58-.1-7.58-.05-7.58.07-7.58-.18-7.58.04-7.58.15h-7.71s.52-7.73.52-7.73l-.27-7.62-.56-7.62v-7.62s.07-7.31.07-7.31l-6.06-.22-6.43.4-6.44-.44-6.42-.05.2,7.6-.39,7.62.22,7.62.39,7.62-.77,7.35-5.78-.22-6.12.44-5.76-.27-.13-6.57-.14-6.89-.37-6.89.56-6.89.02-6.88-.1-6.89.22-6.89-.32-6.86,6.7,1.11,6.02-.68,5.4-2.68,5.03-3.26,5.09,3.14,5.42,2.45,5.93.81,5.91-.89,5.51-2.24,5.03-3.38,5.11,3.22,5.37,2.61,5.96,1.08,6.03-.84,5.43-2.63,4.99-2.99,4.96,3.05,5.49,2.48,6,1.08,6.39-1.33.46,6.74-.12,6.89-.39,6.89v6.89s.29,6.88.29,6.88l.58,6.89-.21,6.9-.47,6.58Z"/>
      <path class="cls-1" d="M26.05,36.13l.6,7.1-.13,6.8-.1,6.79-.05,6.8.07,6.81-.18,6.81,1.18,7.37,3.45,6.59,5.25,5.39-.56,7.47.27,7.43.56,7.43v7.43s.05,7.44.05,7.44l-.39,7.44.4,7.44-.44,7.44-.04,7.43,7.1-.2,7.11.39,7.11-.22,7.11-.39,7.11.86,7.11.06,7.11-.44,7.11.43,7.11-.25,7.11-.14,7.11-.37,7.11.56,7.11.02,7.11-.1,7.11.22,7.12-.31,7.12.05h7.29s-.46-7.6-.46-7.6l.27-7.43-.41-7.43.31-7.43.07-7.44-.15-7.44-.08-7.44.16-7.44-.33-7.54,5.64-5.24,3.65-6.56,1.06-7.46-.47-6.8.53-6.8-.46-6.79.31-6.8.33-6.81-.19-7.13-7.66.36-7.36-.12-7.36-.39h-7.36s-7.36.29-7.36.29l-7.36.58-7.37-.21-7.36.21-7.36-.81-7.37-.08-7.37.12-7.36.39-7.36-.12-7.36-.22-7.37.08-7.37-.15-7.37.19-7.37-.02-7.36-.25-7.66.17ZM165.37,77.24l-1.08,7.58-4.09,5.01-4.02,2.45-6.84,1.44-7.61-1.78-5.76-5.25-2.89-7.2-.19-2.37v2.4s-3.34,6.99-3.34,6.99l-5.61,5.23-7.51,2.39-6.47-1.27-5.5-3.65-4.41-9.7-.07-2.77-.1,2.77-2.9,7.24-5.78,5.29-7.66,1.47-7.58-1.62-6.2-4.9-2.08-7.55-.59-1.71-.21,1.76-3.2,6.97-5.58,5.19-7.46,1.95-6.92-1.13-3.63-3-.86-.82-3.08-4.07-1.54-7.35-.31-6.59.05-6.58.07-6.59-.53-6.59.28-6.61,7.32-.41,7.31.31,7.31.07,7.31-.15,7.31-.08,7.31.16,7.31-.34,7.31.47,7.31.34,7.31-.1,7.31-.47,7.31.53,7.31-.46,7.31.31,7.31.33,7.31-.05,7.32-.48,7.26.1-.42,6.52v6.58s.29,6.59.29,6.59l.58,6.6-.82,6.58ZM155.86,155.37l-7.29.62-7.58-.13-7.58-.1-7.58-.05-7.58.07-7.58-.18-7.58.04-7.58.15h-7.71s.52-7.73.52-7.73l-.27-7.62-.56-7.62v-7.62s.07-7.31.07-7.31l-6.06-.22-6.43.4-6.44-.44-6.42-.05.2,7.6-.39,7.62.22,7.62.39,7.62-.77,7.35-5.78-.22-6.12.44-5.76-.27-.13-6.57-.14-6.89-.37-6.89.56-6.89.02-6.88-.1-6.89.22-6.89-.32-6.86,6.7,1.11,6.02-.68,5.4-2.68,5.03-3.26,5.09,3.14,5.42,2.45,5.93.81,5.91-.89,5.51-2.24,5.03-3.38,5.11,3.22,5.37,2.61,5.96,1.08,6.03-.84,5.43-2.63,4.99-2.99,4.96,3.05,5.49,2.48,6,1.08,6.39-1.33.46,6.74-.12,6.89-.39,6.89v6.89s.29,6.88.29,6.88l.58,6.89-.21,6.9-.47,6.58Z"/>
    </g>
  </g>
  <g>
    <polygon class="cls-1" points="106.38 138.25 113.25 138.37 119.84 138.27 126.43 138.14 133.03 137.69 139.31 137.76 139.38 129.95 139.25 121.87 139.34 114.03 133.03 113.85 126.45 113.56 119.86 114.05 113.26 113.47 106.47 113.64 106.35 121.87 106.58 129.94 106.38 138.25"/>
    <path class="cls-1" d="M26.05,36.13l.6,7.1-.13,6.8-.1,6.79-.05,6.8.07,6.81-.18,6.81,1.18,7.37,3.45,6.59,5.25,5.39-.56,7.47.27,7.43.56,7.43v7.43s.05,7.44.05,7.44l-.39,7.44.4,7.44-.44,7.44-.04,7.43,7.1-.2,7.11.39,7.11-.22,7.11-.39,7.11.86,7.11.06,7.11-.44,7.11.43,7.11-.25,7.11-.14,7.11-.37,7.11.56,7.11.02,7.11-.1,7.11.22,7.12-.31,7.12.05h7.29s-.46-7.6-.46-7.6l.27-7.43-.41-7.43.31-7.43.07-7.44-.15-7.44-.08-7.44.16-7.44-.33-7.54,5.64-5.24,3.65-6.56,1.06-7.46-.47-6.8.53-6.8-.46-6.79.31-6.8.33-6.81-.19-7.13-7.66.36-7.36-.12-7.36-.39h-7.36s-7.36.29-7.36.29l-7.36.58-7.37-.21-7.36.21-7.36-.81-7.37-.08-7.37.12-7.36.39-7.36-.12-7.36-.22-7.37.08-7.37-.15-7.37.19-7.37-.02-7.36-.25-7.66.17ZM165.37,77.24l-1.08,7.58-4.09,5.01-4.02,2.45-6.84,1.44-7.61-1.78-5.76-5.25-2.89-7.2-.19-2.37v2.4s-3.34,6.99-3.34,6.99l-5.61,5.23-7.51,2.39-6.47-1.27-5.5-3.65-4.41-9.7-.07-2.77-.1,2.77-2.9,7.24-5.78,5.29-7.66,1.47-7.58-1.62-6.2-4.9-2.08-7.55-.59-1.71-.21,1.76-3.2,6.97-5.58,5.19-7.46,1.95-6.92-1.13-3.63-3-.86-.82-3.08-4.07-1.54-7.35-.31-6.59.05-6.58.07-6.59-.53-6.59.28-6.61,7.32-.41,7.31.31,7.31.07,7.31-.15,7.31-.08,7.31.16,7.31-.34,7.31.47,7.31.34,7.31-.1,7.31-.47,7.31.53,7.31-.46,7.31.31,7.31.33,7.31-.05,7.32-.48,7.26.1-.42,6.52v6.58s.29,6.59.29,6.59l.58,6.6-.82,6.58ZM155.86,155.37l-7.29.62-7.58-.13-7.58-.1-7.58-.05-7.58.07-7.58-.18-7.58.04-7.58.15h-7.71s.52-7.73.52-7.73l-.27-7.62-.56-7.62v-7.62s.07-7.31.07-7.31l-6.06-.22-6.43.4-6.44-.44-6.42-.05.2,7.6-.39,7.62.22,7.62.39,7.62-.77,7.35-5.78-.22-6.12.44-5.76-.27-.13-6.57-.14-6.89-.37-6.89.56-6.89.02-6.88-.1-6.89.22-6.89-.32-6.86,6.7,1.11,6.02-.68,5.4-2.68,5.03-3.26,5.09,3.14,5.42,2.45,5.93.81,5.91-.89,5.51-2.24,5.03-3.38,5.11,3.22,5.37,2.61,5.96,1.08,6.03-.84,5.43-2.63,4.99-2.99,4.96,3.05,5.49,2.48,6,1.08,6.39-1.33.46,6.74-.12,6.89-.39,6.89v6.89s.29,6.88.29,6.88l.58,6.89-.21,6.9-.47,6.58Z"/>
  </g>
</svg>