<?xml version="1.0" encoding="UTF-8"?>
<svg id="Layer_4" xmlns="http://www.w3.org/2000/svg" viewBox="0 0 199.97 199.97">
  <defs>
    <style>
      .cls-1 {
        fill: #37221c;
      }

      .cls-2 {
        fill: #cfab6a;
      }
    </style>
  </defs>
  <g>
    <g>
      <polygon class="cls-2" points="50.64 94.08 44.23 92.16 43.85 79.51 51.53 79.56 59.23 79.13 66.96 79.41 63.85 86.58 58.2 91.84 50.64 94.08"/>
      <polygon class="cls-2" points="50.64 94.08 44.23 92.16 43.85 79.51 51.53 79.56 59.23 79.13 66.96 79.41 63.85 86.58 58.2 91.84 50.64 94.08"/>
    </g>
    <g>
      <polygon class="cls-2" points="67.29 79.62 75.4 79.42 83.54 79.78 91.69 79.55 99.8 79.58 97.08 86.81 91 91.64 83.54 93.83 76.21 91.41 70.05 86.78 67.29 79.62"/>
      <polygon class="cls-2" points="67.29 79.62 75.4 79.42 83.54 79.78 91.69 79.55 99.8 79.58 97.08 86.81 91 91.64 83.54 93.83 76.21 91.41 70.05 86.78 67.29 79.62"/>
    </g>
    <g>
      <polygon class="cls-2" points="105.12 88.57 100.24 79.67 108.29 79.45 116.43 79.86 124.58 79.31 132.81 79.24 130.25 87.01 123.95 91.77 116.43 93.49 105.12 88.57"/>
      <polygon class="cls-2" points="105.12 88.57 100.24 79.67 108.29 79.45 116.43 79.86 124.58 79.31 132.81 79.24 130.25 87.01 123.95 91.77 116.43 93.49 105.12 88.57"/>
    </g>
    <g>
      <polygon class="cls-2" points="155.73 79.74 155.94 92.18 149.33 94.02 141.61 92.15 135.65 86.91 133.15 79.78 140.74 79.57 148.45 79.11 155.73 79.74"/>
      <polygon class="cls-2" points="155.73 79.74 155.94 92.18 149.33 94.02 141.61 92.15 135.65 86.91 133.15 79.78 140.74 79.57 148.45 79.11 155.73 79.74"/>
    </g>
    <g>
      <path class="cls-2" d="M149.33,101.22l-8.9-1.16-7.55-4.68-7.6,4.55-8.85,1.65-8.65-2.15-7.79-3.99-7.77,4.06-8.68,1.71-8.84-1.29-7.61-4.51-7.52,4.73-8.93,1.11-6.53-.62-.68,9.11.8,9.18-.57,9.19.66,9.18-.67,9.19.48,8.89,8.88.34,9.33.1.07-9.67-.27-9.52-.27-9.53.2-9.63,8.69-.08,8.58.04,8.82-.07v9.74s-.29,9.52-.29,9.52l.49,9.53-.3,9.4,8.38-.12,8.52.11,8.52.16,8.53-.15,8.53.08,8.53.39,8.53-.42,8.76.3.12-9.39-.05-9.18-.24-9.19-.38-9.18.13-9.19.29-9.22-6.91.68ZM139.81,138.22l-8.43-.5-8.24.23-8.24.29-8.38-.08.49-8.21-.8-8.08.11-8.42,8.58.44,8.24-.04,8.24-.51,8.01.69.66,7.84-.93,8.08.69,8.26Z"/>
      <path class="cls-2" d="M149.33,101.22l-8.9-1.16-7.55-4.68-7.6,4.55-8.85,1.65-8.65-2.15-7.79-3.99-7.77,4.06-8.68,1.71-8.84-1.29-7.61-4.51-7.52,4.73-8.93,1.11-6.53-.62-.68,9.11.8,9.18-.57,9.19.66,9.18-.67,9.19.48,8.89,8.88.34,9.33.1.07-9.67-.27-9.52-.27-9.53.2-9.63,8.69-.08,8.58.04,8.82-.07v9.74s-.29,9.52-.29,9.52l.49,9.53-.3,9.4,8.38-.12,8.52.11,8.52.16,8.53-.15,8.53.08,8.53.39,8.53-.42,8.76.3.12-9.39-.05-9.18-.24-9.19-.38-9.18.13-9.19.29-9.22-6.91.68ZM139.81,138.22l-8.43-.5-8.24.23-8.24.29-8.38-.08.49-8.21-.8-8.08.11-8.42,8.58.44,8.24-.04,8.24-.51,8.01.69.66,7.84-.93,8.08.69,8.26Z"/>
    </g>
    <g>
      <g>
        <polygon class="cls-2" points="165.97 44.09 166.07 52.53 166.01 60.76 165.51 69 165.4 77.24 162.91 85.98 155.95 91.79 149.33 93.59 141.57 92.24 135.98 86.68 132.81 79.55 132.77 79.51 129.51 86.49 124.17 92.18 116.43 93.27 104.86 88.82 99.9 79.55 99.61 79.44 97.31 86.97 91.14 91.91 83.54 93.42 75.78 92.24 69.9 86.89 66.88 79.59 66.51 79.39 63.83 86.56 58.23 91.9 50.64 93.53 43.7 92.51 39.35 88.54 34.04 77.24 33.72 69.01 34.01 60.77 34.18 52.53 34.21 44.31 42.96 44.09 51.73 43.99 60.51 44 69.28 44.57 78.05 44.76 86.82 43.93 95.59 43.93 104.36 43.85 113.13 44.79 121.9 44.11 130.68 43.97 139.45 44.17 148.22 44.01 157 44.41 165.97 44.09"/>
        <polygon class="cls-2" points="165.97 44.09 166.07 52.53 166.01 60.76 165.51 69 165.4 77.24 162.91 85.98 155.95 91.79 149.33 93.59 141.57 92.24 135.98 86.68 132.81 79.55 132.77 79.51 129.51 86.49 124.17 92.18 116.43 93.27 104.86 88.82 99.9 79.55 99.61 79.44 97.31 86.97 91.14 91.91 83.54 93.42 75.78 92.24 69.9 86.89 66.88 79.59 66.51 79.39 63.83 86.56 58.23 91.9 50.64 93.53 43.7 92.51 39.35 88.54 34.04 77.24 33.72 69.01 34.01 60.77 34.18 52.53 34.21 44.31 42.96 44.09 51.73 43.99 60.51 44 69.28 44.57 78.05 44.76 86.82 43.93 95.59 43.93 104.36 43.85 113.13 44.79 121.9 44.11 130.68 43.97 139.45 44.17 148.22 44.01 157 44.41 165.97 44.09"/>
      </g>
      <g>
        <path class="cls-2" d="M132.88,77.16l.09,2.26.05.07-.14-2.33ZM99.99,77.16l.09,2.26.05.07-.14-2.33ZM67.09,77.16l.09,2.26.05.07-.14-2.33Z"/>
        <path class="cls-2" d="M132.88,77.16l.09,2.26.05.07-.14-2.33ZM99.99,77.16l.09,2.26.05.07-.14-2.33ZM67.09,77.16l.09,2.26.05.07-.14-2.33Z"/>
      </g>
    </g>
  </g>
  <g>
    <polygon class="cls-2" points="50.64 94.08 44.23 92.16 43.85 79.51 51.53 79.56 59.23 79.13 66.96 79.41 63.85 86.58 58.2 91.84 50.64 94.08"/>
    <polygon class="cls-2" points="67.29 79.62 75.4 79.42 83.54 79.78 91.69 79.55 99.8 79.58 97.08 86.81 91 91.64 83.54 93.83 76.21 91.41 70.05 86.78 67.29 79.62"/>
    <polygon class="cls-2" points="105.12 88.57 100.24 79.67 108.29 79.45 116.43 79.86 124.58 79.31 132.81 79.24 130.25 87.01 123.95 91.77 116.43 93.49 105.12 88.57"/>
    <polygon class="cls-2" points="155.73 79.74 155.94 92.18 149.33 94.02 141.61 92.15 135.65 86.91 133.15 79.78 140.74 79.57 148.45 79.11 155.73 79.74"/>
    <path class="cls-2" d="M149.33,101.22l-8.9-1.16-7.55-4.68-7.6,4.55-8.85,1.65-8.65-2.15-7.79-3.99-7.77,4.06-8.68,1.71-8.84-1.29-7.61-4.51-7.52,4.73-8.93,1.11-6.53-.62-.68,9.11.8,9.18-.57,9.19.66,9.18-.67,9.19.48,8.89,8.88.34,9.33.1.07-9.67-.27-9.52-.27-9.53.2-9.63,8.69-.08,8.58.04,8.82-.07v9.74s-.29,9.52-.29,9.52l.49,9.53-.3,9.4,8.38-.12,8.52.11,8.52.16,8.53-.15,8.53.08,8.53.39,8.53-.42,8.76.3.12-9.39-.05-9.18-.24-9.19-.38-9.18.13-9.19.29-9.22-6.91.68ZM139.81,138.22l-8.43-.5-8.24.23-8.24.29-8.38-.08.49-8.21-.8-8.08.11-8.42,8.58.44,8.24-.04,8.24-.51,8.01.69.66,7.84-.93,8.08.69,8.26Z"/>
    <g>
      <polygon class="cls-2" points="165.97 44.09 166.07 52.53 166.01 60.76 165.51 69 165.4 77.24 162.91 85.98 155.95 91.79 149.33 93.59 141.57 92.24 135.98 86.68 132.81 79.55 132.77 79.51 129.51 86.49 124.17 92.18 116.43 93.27 104.86 88.82 99.9 79.55 99.61 79.44 97.31 86.97 91.14 91.91 83.54 93.42 75.78 92.24 69.9 86.89 66.88 79.59 66.51 79.39 63.83 86.56 58.23 91.9 50.64 93.53 43.7 92.51 39.35 88.54 34.04 77.24 33.72 69.01 34.01 60.77 34.18 52.53 34.21 44.31 42.96 44.09 51.73 43.99 60.51 44 69.28 44.57 78.05 44.76 86.82 43.93 95.59 43.93 104.36 43.85 113.13 44.79 121.9 44.11 130.68 43.97 139.45 44.17 148.22 44.01 157 44.41 165.97 44.09"/>
      <path class="cls-1" d="M132.88,77.16l.09,2.26.05.07-.14-2.33ZM99.99,77.16l.09,2.26.05.07-.14-2.33ZM67.09,77.16l.09,2.26.05.07-.14-2.33Z"/>
    </g>
  </g>
</svg>