<?xml version="1.0" standalone="no"?>
<!DOCTYPE svg PUBLIC "-//W3C//DTD SVG 20010904//EN"
 "http://www.w3.org/TR/2001/REC-SVG-20010904/DTD/svg10.dtd">
<svg version="1.0" xmlns="http://www.w3.org/2000/svg"
 width="860.000000pt" height="749.000000pt" viewBox="0 0 860.000000 749.000000"
 preserveAspectRatio="xMidYMid meet">
<metadata>
Created by potrace 1.16, written by Peter Selinger 2001-2019
</metadata>
<g transform="translate(0.000000,749.000000) scale(0.100000,-0.100000)"
fill="#000000" stroke="none">
<path d="M513 7062 c-206 -72 -268 -325 -119 -490 20 -22 58 -51 84 -64 47
-23 51 -23 466 -28 l420 -5 156 -415 c147 -391 274 -728 702 -1860 195 -516
392 -1038 597 -1582 72 -191 131 -353 131 -360 0 -7 -26 -28 -57 -47 -79 -48
-204 -170 -259 -253 -266 -400 -152 -966 246 -1224 154 -99 291 -139 480 -138
116 1 147 5 223 28 329 99 564 361 622 691 23 136 18 238 -21 407 l-6 28 881
0 c484 0 881 -3 881 -6 0 -3 -8 -34 -17 -68 -13 -46 -17 -99 -17 -211 1 -133
4 -160 27 -238 105 -343 373 -577 719 -628 158 -23 318 3 478 77 194 92 327
226 420 428 52 111 71 191 77 327 20 417 -250 782 -657 891 l-85 22 -1665 4
-1665 3 -74 197 c-41 108 -76 203 -79 209 -3 10 396 13 1929 15 l1934 3 49 24
c57 28 109 77 135 129 17 35 81 240 510 1632 99 322 214 698 257 835 66 213
78 260 78 320 -1 116 -67 220 -173 269 l-46 21 -2950 3 -2950 2 -73 193 c-41
105 -119 313 -174 460 -112 297 -134 333 -232 385 l-51 27 -540 2 c-498 3
-544 1 -592 -15z m3541 -1704 c8 -65 66 -821 66 -848 0 -20 -7 -20 -687 -18
l-688 3 -152 405 c-84 223 -161 429 -172 458 l-20 52 824 0 824 0 5 -52z
m1706 25 c0 -43 -60 -845 -66 -870 l-4 -23 -635 0 c-349 0 -635 1 -635 3 0 1
-16 205 -35 452 -19 248 -35 453 -35 458 0 4 317 7 705 7 l705 0 0 -27z m1825
-15 c-16 -48 -122 -393 -210 -685 l-59 -193 -657 0 c-362 0 -660 3 -662 8 -2
4 11 196 29 427 18 231 33 435 33 453 l1 32 769 0 770 0 -14 -42z m-3414
-1518 c15 -184 30 -368 33 -407 l7 -73 -520 0 -520 0 -39 103 c-106 275 -262
694 -262 705 0 9 142 12 638 10 l637 -3 26 -335z m1499 328 c0 -7 -14 -182
-30 -388 -16 -206 -30 -385 -30 -397 l0 -23 -550 0 -549 0 -5 33 c-7 39 -56
709 -56 755 l0 32 610 0 c481 0 610 -3 610 -12z m1546 -10 c-4 -13 -60 -196
-124 -408 l-119 -385 -531 -3 -532 -2 0 32 c0 18 14 200 30 403 16 204 30 373
30 378 0 4 282 7 626 7 l626 0 -6 -22z m-3749 -2450 c56 -26 126 -105 142
-159 67 -219 -120 -417 -334 -355 -74 22 -153 97 -178 170 -79 232 152 447
370 344z m3420 -4 c56 -27 91 -63 126 -128 33 -62 31 -174 -5 -242 -104 -199
-374 -202 -481 -5 -86 157 -3 349 173 398 58 16 122 8 187 -23z"/>
</g>
</svg>
