<?xml version="1.0" encoding="UTF-8"?>
<svg id="Layer_4" xmlns="http://www.w3.org/2000/svg" viewBox="0 0 168 168">
  <defs>
    <style>
      .cls-1 {
        fill: #231f20;
      }
    </style>
  </defs>
  <polygon class="cls-1" points="120.84 61.06 114.47 53.53 106.93 47.29 100.92 52.43 95.82 58.8 90.22 64.69 84 70.02 78.56 63.93 72.3 58.72 66.59 52.94 61.03 46.9 54.07 54.07 47.02 61.05 52.7 66.81 58.79 72.19 64.04 78.43 70.45 84 64 89.51 58.48 95.47 52.89 101.36 47.03 106.95 54.35 113.65 61.11 120.33 66.59 115.08 72.74 109.76 77.78 103.31 84 97.94 90.02 103.49 95.73 109.25 101.69 114.78 106.9 120.43 114.26 114.26 120.29 106.88 115.5 100.99 109.14 95.87 103.53 90 97.41 84 103.88 78.37 109.81 72.82 115.29 66.82 120.84 61.06"/>
</svg>