<?xml version="1.0" encoding="UTF-8"?>
<svg id="Layer_4" xmlns="http://www.w3.org/2000/svg" viewBox="0 0 168 168">
  <defs>
    <style>
      .cls-1 {
        fill: #231f20;
      }
    </style>
  </defs>
  <path class="cls-1" d="M103.49,97.26l-.36-.36,4.64-5.56,5.68-4.51,5.21-4.99,4.31-5.91,4.85-4.54-4.68-5.44-5.32-5.57-6.01-4.88-4.68-6.22-5.97-4.94-5.27-6.08-6.6,5.97-5.51,6.66-6.5,5.69-5.45,6.75-6.46,5.74.23.23-6.07,4.83-5.41,5.49-4.63,6.27-6.41,4.5-5.57,6.01,5.86,5.41,5.32,5.26,5.53,5.07,5.73,4.87,4.84,5.57,8.13.86,4.17-.55,7.84.31,7.84-.26,7.84.4,7.84-.26,7.98-.04-.47-6.77-7.72-.16-8.05.65-8.05-1.05-8.23.23,6.66-6.23,6.67-5.97,6.24-6.47ZM48.64,96.35l5.05-5.5,5.12-6.04,6.16-5,5.43-5.36,6.24,4.78,5.72,5.68,5.17,6.23,5.53,5.72-5.73,6.8-7.11,5.57-5.84,6.87-1.45-.64-4.99-.25-6.9-5.79-6.09-6.89-6.32-6.18Z"/>
</svg>