<?xml version="1.0" encoding="UTF-8"?>
<svg id="Layer_4" xmlns="http://www.w3.org/2000/svg" viewBox="0 0 168 168">
  <defs>
    <style>
      .cls-1 {
        fill: #231f20;
      }
    </style>
  </defs>
  <path class="cls-1" d="M105.72,48.65l-8.44-.37-8.6-.04-8.6-.57-8.6.4-8.6-.65-8.66.34-6.25,6.53-.23,8.49-.38,8.49.26,8.49v8.49s.04,8.49.04,8.49l.85,8.5.07,8.36,5.65,6.62,8.53-.46,8.49.73,8.49-.97,8.49.29,8.49-.24,8.5.48,8.37-.58,5.99-5.83.26-8.5.42-8.6-.81-8.6.31-8.6-.42-8.6,1.06-8.7-7.97-6.47-6.72-6.92ZM102.73,77.6l-7.79-.16-7.29-.04-7.29-.57-7.29.4-6.86-.45-.18-7.78-.23-8.17.17-8.01,7.1.46,7.29-.26h7.29s7.29-.04,7.29-.04l7.68-.68.21,8.51-.81,8.18.7,8.61Z"/>
  <polygon class="cls-1" points="97.75 55.41 97.77 64.91 97.72 74.36 85.67 74.27 85.63 64.91 85.77 55.67 97.75 55.41"/>
</svg>